<svg width="20" height="16" viewBox="0 0 20 16" fill="none" xmlns="http://www.w3.org/2000/svg">
<g id="Medium">
<path id="Fill 53" fill-rule="evenodd" clip-rule="evenodd" d="M19.0819 2.9111C19.0782 2.90822 19.0753 2.90445 19.0708 2.9023L19.0643 2.89906L13.3509 0.063765C13.3124 0.0445457 13.2718 0.0316131 13.2307 0.0211951C13.1792 0.00808289 13.1265 0 13.0737 0C12.8549 0 12.6371 0.109029 12.5191 0.299067L9.22992 5.60432L13.3578 12.2617L19.0994 3.00163C19.1184 2.97073 19.1094 2.93265 19.0819 2.9111" fill="white"/>
<path id="Fill 54" fill-rule="evenodd" clip-rule="evenodd" d="M7.41815 4.39583V10.4348L12.8264 13.1187L7.41815 4.39583" fill="white"/>
<path id="Fill 55" fill-rule="evenodd" clip-rule="evenodd" d="M13.639 13.522L18.0909 15.7311C18.6702 16.0187 19.1398 15.8173 19.1398 15.2817V4.65019L13.639 13.522" fill="white"/>
<path id="Fill 56" fill-rule="evenodd" clip-rule="evenodd" d="M6.47925 2.91973L0.89924 0.150533C0.798437 0.100599 0.70252 0.076889 0.615652 0.076889C0.371335 0.076889 0.199951 0.264592 0.199951 0.579465V12.5368C0.199951 12.8568 0.435943 13.2358 0.724418 13.379L5.63917 15.8179C5.76513 15.8804 5.88511 15.91 5.99352 15.91C6.299 15.91 6.51328 15.6754 6.51328 15.2817V2.97416C6.51328 2.95116 6.50007 2.92997 6.47925 2.91973" fill="white"/>
</g>
</svg>
