<svg width="20" height="16" viewBox="0 0 20 16" fill="none" xmlns="http://www.w3.org/2000/svg">
<path id="Twitter" fill-rule="evenodd" clip-rule="evenodd" d="M19.2 1.89411C18.4945 2.21538 17.7349 2.43265 16.9382 2.52972C17.7519 2.03048 18.3762 1.23886 18.6703 0.295847C17.9085 0.758108 17.0667 1.0944 16.1673 1.27468C15.4506 0.489996 14.4262 0 13.2925 0C11.1186 0 9.35488 1.8086 9.35488 4.039C9.35488 4.35565 9.38869 4.66306 9.45631 4.9589C6.1825 4.79018 3.28058 3.18382 1.33657 0.737306C0.997358 1.33593 0.803522 2.03048 0.803522 2.7701C0.803522 4.17075 1.49886 5.4073 2.55594 6.13189C1.91132 6.11224 1.30276 5.92849 0.77084 5.62802V5.67772C0.77084 7.63539 2.12883 9.26833 3.93196 9.63814C3.60176 9.7329 3.25353 9.78028 2.89403 9.78028C2.64046 9.78028 2.39253 9.75601 2.15249 9.70863C2.65399 11.3127 4.10776 12.481 5.83201 12.5122C4.48417 13.5962 2.78471 14.2423 0.939884 14.2423C0.622081 14.2423 0.30766 14.2238 0 14.1868C1.7434 15.3309 3.81475 16 6.03824 16C13.2846 16 17.2458 9.84615 17.2458 4.5082C17.2458 4.33254 17.2425 4.15688 17.2357 3.98469C18.0054 3.41495 18.6737 2.70423 19.2 1.89411Z" fill="white"/>
</svg>
